# xmcd
#
# Track frame offsets: 
#        150
#        18008
#        34498
#        56343
#        74455
#        96245
#        121255
#        138108
#        160163
#        170958
#        192183
#        206593
#        225670
#        245503
#        258383
#        279683
#        288983
#        310375
#        325738
#
# Disc length: 4553 seconds
#
# Revision: 2
# Processed by: cddbd v1.5.2PL0 Copyright (c) Steve Scherf et al.
# Submitted via: ExactAudioCopyFreeDBPlugin 1.0
#
DISCID=1611c713
DTITLE=John Gill - Sidewalk Blues
DYEAR=1995
DGENRE=Blues
TTITLE0=Sidewalk Blues
TTITLE1=Georgia
TTITLE2=Working Man Blues
TTITLE3=Dr. Jazz
TTITLE4=Bethena
TTITLE5=Medley - I'll Always Be In Love With You, It's a Sin to Tell a
TTITLE5=Lie, My Blue Heaven, I'll Always Be In Love With You
TTITLE6=Chicago Breakdown
TTITLE7=Humoresque
TTITLE8=The Joint Is Jumpin
TTITLE9=Cryin For The Carolines
TTITLE10=Soothing Syrup Stomp
TTITLE11=Don't Get Around Much Anymore
TTITLE12=Pineapple Rag
TTITLE13=Weary Blues
TTITLE14=Medley - When Rastus Plays On His Old Kazoo, Who's Sorry Now,
TTITLE14=Wait Till The Sun Shines Nellie
TTITLE15=I'm Crazy Bout My Baby
TTITLE16=Nobody Knows You When You're Down And Out
TTITLE17=You've Gotta See Mama Every Night
TTITLE18=Riverboat Shuffle
EXTD=
EXTT0=Morton
EXTT1=Carmichael
EXTT2=Oliver
EXTT3=Oliver
EXTT4=
EXTT5=
EXTT6=Morton
EXTT7=Dvorak
EXTT8=Waller
EXTT9=Warren
EXTT10=Waller
EXTT11=Ellington
EXTT12=Joplin
EXTT13=Matthews
EXTT14=
EXTT15=Waller
EXTT16=J. Cox
EXTT17=Rose and Conrad
EXTT18=Carmichael
PLAYORDER=
